<svg xmlns="http://www.w3.org/2000/svg" width="541" height="320" viewBox="0 0 541 320">
    <g fill="none" fill-rule="evenodd">
        <g>
            <path fill="#FFF" d="M0 0H1440V3156H0z" transform="translate(-688 -116)"/>
            <path fill="#F5F7F7" d="M0 60H1440V480H0z" transform="translate(-688 -116)"/>
            <g transform="translate(-688 -116) translate(688 117)">
                <path stroke="#2E2E2E" d="M166.5 217L76 217 76 0 470 0 470 217 290 217"/>
                <path stroke="#282929" d="M422 56v35.973c0 1.12-.882 2.027-1.97 2.027H293m-160.028 0c-1.09 0-1.972-.895-1.972-2V57m18-18h156"/>
                <path stroke="#282929" stroke-dasharray="2 2" d="M172 205.51h-32m-12-44.322v-49.994c0-2.316 1.79-4.194 4-4.194h111c2.21 0 4 1.878 4 4.194v21.492M259 150.204v-38.989c0-2.328 1.79-4.215 4-4.215h118c2.21 0 4 1.887 4 4.215v89.57c0 2.328-1.79 4.215-4 4.215h-86"/>
                <path fill="#F2534E" d="M27 177H113V281H27z"/>
                <g transform="translate(328 117)">
                    <rect width="169" height="129" x=".5" y=".5" fill="#FFF" stroke="#2E2E2E" rx="2"/>
                    <g fill="#F2534E">
                        <path d="M11 6.25c0 .69-.616 1.25-1.375 1.25H2.75L0 10V1.25C0 .56.616 0 1.375 0h8.25C10.385 0 11 .56 11 1.25v5z" transform="translate(10 106)"/>
                    </g>
                    <g fill="#F2534E">
                        <path d="M10.263 0C11.775 0 13 1.164 13 2.6c0 1.436-1.225 2.6-2.737 2.6-.888 0-1.677-.402-2.177-1.025L5.28 5.54c.124.297.193.622.193.961 0 .339-.069.663-.193.96l2.807 1.362C8.588 8.2 9.376 7.8 10.263 7.8 11.775 7.8 13 8.964 13 10.4c0 1.436-1.225 2.6-2.737 2.6-1.511 0-2.737-1.164-2.737-2.6 0-.13.01-.256.03-.38l-.016-.006-.07-.034-3.01-1.46c-.47.363-1.07.58-1.723.58C1.225 9.1 0 7.936 0 6.5c0-1.436 1.225-2.6 2.737-2.6.653 0 1.253.217 1.723.58l3.002-1.46.093-.042c-.019-.124-.029-.25-.029-.378 0-1.436 1.226-2.6 2.737-2.6z" transform="translate(145 104)"/>
                    </g>
                    <g fill="#F2534E">
                        <path d="M8.35 4.667V2c0-1.105-.863-2-1.927-2l-2.57 6v6h5.961c.641.007 1.189-.476 1.285-1.133l.886-4.667c.057-.387-.053-.78-.3-1.075-.248-.295-.607-.463-.984-.458H8.35zM2.57 12H1.284C.575 12 0 11.403 0 10.667V7.333C0 6.597.575 6 1.285 6h1.284v6z" transform="translate(77 103)"/>
                    </g>
                    <circle cx="13.5" cy="17.5" r="3" stroke="#282929"/>
                    <path stroke="#B1B5B5" stroke-linecap="round" stroke-width="3" d="M21 17.5L55 17.5"/>
                    <path stroke="#B1B5B5" stroke-linecap="round" d="M148 17.5L160 17.5"/>
                    <path stroke="#2E2E2E" stroke-linecap="round" d="M10 29.5L160 29.5M10 37.5L160 37.5M10 45.5L160 45.5M10 53.5L160 53.5M10 62L160 62M10 71L160 71M10 80L160 80M10 89L110 89"/>
                </g>
                <g transform="translate(366 63)">
                    <rect width="169" height="214" x=".5" y=".5" fill="#FFF" stroke="#2E2E2E" rx="2"/>
                    <g transform="translate(10 189)">
                        <rect width="34" height="16" fill="#F2534E" rx="2"/>
                        <rect width="22" height="4" x="6" y="6" fill="#FFF" rx="2"/>
                    </g>
                    <rect width="149" height="34" x="10.5" y="144.5" fill="#FFF" stroke="#E1E4EB" rx="2"/>
                    <g fill="#F2534E">
                        <path d="M11 6.25c0 .69-.616 1.25-1.375 1.25H2.75L0 10V1.25C0 .56.616 0 1.375 0h8.25C10.385 0 11 .56 11 1.25v5z" transform="translate(10 106)"/>
                    </g>
                    <g fill="#F2534E">
                        <path d="M10.263 0C11.775 0 13 1.164 13 2.6c0 1.436-1.225 2.6-2.737 2.6-.888 0-1.677-.402-2.177-1.025L5.28 5.54c.124.297.193.622.193.961 0 .339-.069.663-.193.96l2.807 1.362C8.588 8.2 9.376 7.8 10.263 7.8 11.775 7.8 13 8.964 13 10.4c0 1.436-1.225 2.6-2.737 2.6-1.511 0-2.737-1.164-2.737-2.6 0-.13.01-.256.03-.38l-.016-.006-.07-.034-3.01-1.46c-.47.363-1.07.58-1.723.58C1.225 9.1 0 7.936 0 6.5c0-1.436 1.225-2.6 2.737-2.6.653 0 1.253.217 1.723.58l3.002-1.46.093-.042c-.019-.124-.029-.25-.029-.378 0-1.436 1.226-2.6 2.737-2.6z" transform="translate(145 104)"/>
                    </g>
                    <g fill="#F2534E">
                        <path d="M8.35 4.667V2c0-1.105-.863-2-1.927-2l-2.57 6v6h5.961c.641.007 1.189-.476 1.285-1.133l.886-4.667c.057-.387-.053-.78-.3-1.075-.248-.295-.607-.463-.984-.458H8.35zM2.57 12H1.284C.575 12 0 11.403 0 10.667V7.333C0 6.597.575 6 1.285 6h1.284v6z" transform="translate(77 103)"/>
                    </g>
                    <circle cx="13.5" cy="17.5" r="3" stroke="#282929"/>
                    <path stroke="#B1B5B5" stroke-linecap="round" stroke-width="3" d="M21 17.5L55 17.5"/>
                    <path stroke="#B1B5B5" stroke-linecap="round" d="M148 17.5L160 17.5"/>
                    <path stroke="#2E2E2E" stroke-linecap="round" d="M10 29.5L160 29.5M10 37.5L160 37.5M10 45.5L160 45.5M10 53.5L160 53.5M10 62L160 62M10 71L160 71M10 80L160 80"/>
                    <path stroke="#CACECF" stroke-linecap="round" d="M10 130L160 130"/>
                    <path stroke="#2E2E2E" stroke-linecap="round" d="M10 89L110 89"/>
                </g>
                <path fill="#F2534E" style="mix-blend-mode:multiply" d="M76 0L470 0 470 16 76 16z"/>
                <circle cx="88" cy="8" r="2" fill="#2E2E2E"/>
                <circle cx="96" cy="8" r="2" fill="#2E2E2E"/>
                <g fill="#F2534E">
                    <path d="M8.421 12.8L3.471 15.234 4.256 9.774.412 5.819 5.847 4.878 8.421 0 10.995 4.878 16.43 5.819 12.586 9.774 13.371 15.234zM32 12.8L27.05 15.234 27.835 9.774 23.991 5.819 29.426 4.878 32 0 34.574 4.878 40.009 5.819 36.165 9.774 36.95 15.234zM55.579 12.8L50.629 15.234 51.414 9.774 47.57 5.819 53.005 4.878 55.579 0 58.153 4.878 63.588 5.819 59.744 9.774 60.529 15.234z" transform="translate(366 32)"/>
                </g>
                <g>
                    <path fill="#FFF" fill-rule="nonzero" stroke="#282929" d="M16.931.514c1.265-.033 2.156-.062 3.477 1.23 1.036 1.013 1.653 2.355 1.739 3.77h0l.011 6.608h9.781c.248 0 .495.02.739.06 1.156.188 2.16.86 2.849 1.757.692.903 1.071 2.04.951 3.16h0l-3.006 13.976c-.094.658-.428 1.234-.898 1.659-.478.433-1.098.71-1.753.759h0l-20.292.007-.029-16.535z" transform="translate(315 264)"/>
                    <path fill="#F2534E" d="M0 17H10V34H0z" transform="translate(315 264)"/>
                </g>
                <path stroke="#282929" stroke-dasharray="2" d="M312.61 258.294c-8.248 6-13.61 15.727-13.61 26.706 0 18.225 14.775 33 33 33 12.57 0 23.497-7.027 29.07-17.367"/>
                <g fill="#FFF" stroke="#282929" transform="translate(33 172)">
                    <rect width="85" height="102" x=".5" y=".5" rx="2"/>
                </g>
                <g>
                    <path fill="#FFF" stroke="#282929" d="M.5.5h58v39.457H47.556v13.79l-13.077-13.79H.5V.5z" transform="translate(102 74) matrix(-1 0 0 1 59 0)"/>
                    <g transform="translate(102 74) translate(19 10)">
                        <circle cx="10" cy="10" r="9.5" stroke="#282929"/>
                        <path stroke="#282929" d="M5.78 12.683C6.668 14.076 8.226 15 10 15c1.802 0 3.382-.954 4.262-2.384"/>
                        <circle cx="6.5" cy="7.5" r="1.5" fill="#282929"/>
                        <path stroke="#282929" d="M12 7.5L15 7.5"/>
                    </g>
                </g>
                <g>
                    <path stroke="#282929" d="M17 5L29 25 41 45 53 25 41 5 16.5 45 5 25z" transform="translate(47 207)"/>
                    <path stroke="#282929" d="M41 5L5 25 41 45" transform="translate(47 207)"/>
                    <path stroke="#282929" d="M17 45L53 25 17 5" transform="translate(47 207)"/>
                    <g fill="#F2534E" transform="translate(47 207)">
                        <circle cx="17" cy="5" r="5"/>
                        <circle cx="17" cy="45" r="5"/>
                        <circle cx="41" cy="5" r="5"/>
                        <circle cx="41" cy="45" r="5"/>
                        <circle cx="29" cy="25" r="5"/>
                        <circle cx="53" cy="25" r="5"/>
                        <circle cx="5" cy="25" r="5"/>
                    </g>
                </g>
                <g>
                    <g>
                        <g>
                            <path fill="#FFF" stroke="#2E2E2E" d="M12.689 0L22.966 4.86 23 124.766 9.989 130 0.597 124.766 0 4.337z" transform="translate(170 142) translate(1 10) translate(65)"/>
                            <path fill="#CACECF" style="mix-blend-mode:multiply" d="M0 4.5L10.5 10.5 10.5 130 0 123z" transform="translate(170 142) translate(1 10) translate(65)"/>
                        </g>
                        <g>
                            <path fill="#FFF" stroke="#2E2E2E" d="M12.689 0L22.966 4.829 23 114.8 9.989 120 0.597 114.8 0 4.309z" transform="translate(170 142) translate(1 10) translate(48 17)"/>
                            <path fill="#CACECF" style="mix-blend-mode:multiply" d="M0 4.5L10.5 10.5 10.5 120 0 113z" transform="translate(170 142) translate(1 10) translate(48 17)"/>
                        </g>
                        <g>
                            <path fill="#FFF" stroke="#2E2E2E" d="M11.586 0L20.969 4.895 21 98.728 9.121 104 0.545 98.728 0 4.368z" transform="translate(170 142) translate(1 10) translate(34 42)"/>
                            <path fill="#CACECF" style="mix-blend-mode:multiply" d="M0 4.5L9.5 9.5 9.5 104 0 98z" transform="translate(170 142) translate(1 10) translate(34 42)"/>
                        </g>
                        <g>
                            <path fill="#FFF" stroke="#2E2E2E" d="M11.586 0L20.969 4.854 21 87.773 9.121 93 0.545 87.773 0 4.331z" transform="translate(170 142) translate(1 10) translate(16 59)"/>
                            <path fill="#CACECF" style="mix-blend-mode:multiply" d="M0 4.5L9.5 9.5 9.5 93 0 87z" transform="translate(170 142) translate(1 10) translate(16 59)"/>
                        </g>
                        <g>
                            <path fill="#FFF" stroke="#2E2E2E" d="M11.586 0L20.969 4.9 21 60.723 9.121 66 0.545 60.723 0 4.373z" transform="translate(170 142) translate(1 10) translate(0 94)"/>
                            <path fill="#CACECF" style="mix-blend-mode:multiply" d="M0 4.5L9.5 9.5 9.5 66 0 60z" transform="translate(170 142) translate(1 10) translate(0 94)"/>
                        </g>
                    </g>
                    <path fill="#2E2E2E" fill-rule="nonzero" d="M68.46-2.017l9.08 1.344.88.13-.568.684-5.864 7.062-.769-.64L75.864.97l-5.633 2.157-12.87 4.924v10.67l-.32.124-15.08 5.805v18.97l-.32.123-15.08 5.805v11.847l-.308.128-16.869 6.985v27.275l-.314.125-8.884 3.557-.372-.928 8.57-3.432V67.84l.31-.128 16.867-6.987V48.86l.32-.123 15.08-5.806V23.962l.32-.123 15.08-5.806V7.363l.322-.123 13.191-5.048L75.508.036l-7.194-1.064.146-.989z" transform="translate(170 142)"/>
                </g>
                <path stroke="#2E2E2E" stroke-dasharray="1 3" stroke-linecap="round" d="M30.67 160c12.577-9.179 20.68-23.584 20.68-39.781 0-15.267-7.199-28.942-18.558-38.149" transform="rotate(135 41.01 121.035)"/>
                <g>
                    <path fill="#FFF" stroke="#2E2E2E" d="M22.587.543L40.44 9.497l.06 25.294-19.984 9.647L.5 33.454V8.549L22.587.543z" transform="translate(0 51)"/>
                    <path fill="#B1B5B5" style="mix-blend-mode:multiply" d="M1 9L20 20 20 44 1 33.5z" transform="translate(0 51)"/>
                    <path fill="#F2534E" style="mix-blend-mode:multiply" d="M1 8.901L20 20 40.5 10 22.877 1z" transform="translate(0 51)"/>
                </g>
                <g>
                    <path fill="#FFF" stroke="#282929" d="M17.5 57.704c-5.333-2-8.833-2-10.5 0-2.5 3-2 7.5-.5 9.5.747.997 8.757 4.32 24.03 9.973 1.195.442-8.03 5.323-8.53 7.527-.165.725 0 11.296 1.5 11 .788-.156 1.704-.886 2.717-1.761.768-.664.695-3.41-.217-8.239 8.077-3.83 12.32-5.671 12.727-5.523 2.028.737 5.286 1.911 9.773 3.523-.667 7.333-.667 11.333 0 12 1 1 7-11.204 6.5-12.704-.333-1-2.5-2.932-6.5-5.796 15-7.667 22.833-12.333 23.5-14 1-2.5-2-6.204-4.5-7.704-1.667-1-5.167.068-10.5 3.204v-12c0-10-2.5-19.5-5.5-21.5s-10-3.5-11.5-4.5 0-10.5 0-13c0-1.667-3.167-2.5-9.5-2.5v11.5c0 1 1.5 1 4.5 0v4c-8 2.667-12.5 5.167-13.5 7.5s-1.333 10.5-1 24.5l-3 5z" transform="matrix(-1 0 0 1 114 99)"/>
                    <path stroke="#282929" d="M30.5 77.204L38.5 80M48.5 77.204c-17-11.333-27.333-17.833-31-19.5M38.5 70.704c11-7.333 17.167-11.333 18.5-12M49.5 24.204c-2.333 2.333-3.5 6-3.5 11v21l-8.5 8.5M26.5 37.704L26.5 48.704M50.5 78.5L47.5 83.204M26.5 80.204L30.5 83.204M43.5 22.204c-1.667 2.333-3.667 3.5-6 3.5s-4.333-1.167-6-3.5" transform="matrix(-1 0 0 1 114 99)"/>
                    <path fill="#2B2B2B" stroke="#282929" d="M28.5.204c-1.3.557-1 4 1 5s8 .5 8 2 0 7 1 7.5 3.5-2.5 3.5-5.5-.5-5-5.5-7-6.7-2.557-8-2z" transform="matrix(-1 0 0 1 114 99)"/>
                    <path fill="#2B2B2B" d="M0 46.704h31.5l9 22.5-1 1.5c-12.667-7.667-20-12-22-13-3-1.5-7.5-2-9-1-1 .667-2.167 2-3.5 4l-5-14z" transform="matrix(-1 0 0 1 114 99)"/>
                </g>
                <g>
                    <path fill="#FFF" stroke="#2E2E2E" d="M57 .5c.414 0 .79.168 1.06.44.272.27.44.646.44 1.06h0v36c0 .414-.168.79-.44 1.06-.27.272-.646.44-1.06.44h0H2c-.414 0-.79-.168-1.06-.44C.667 38.79.5 38.415.5 38h0V2c0-.414.168-.79.44-1.06C1.21.667 1.585.5 2 .5h0z" transform="translate(440 9)"/>
                    <path stroke="#2E2E2E" stroke-linecap="round" d="M7 7.5L26 7.5M7 13.5L26 13.5M7 19.5L26 19.5M7 25.5L26 25.5M7 31.5L15 31.5" transform="translate(440 9)"/>
                    <g transform="translate(440 9) translate(32 9)">
                        <circle cx="10.925" cy="10.925" r="10.425" fill="#FFF" stroke="#2E2E2E"/>
                        <path fill="#F2534E" d="M10.925 10.925c4.198 0 7.677 3.078 8.304 7.1-2.004 2.342-4.98 3.826-8.304 3.826-3.323 0-6.3-1.484-8.303-3.825.626-4.023 4.105-7.1 8.303-7.1z"/>
                        <circle cx="10.925" cy="8.824" r="3.702" fill="#FFF" stroke="#2E2E2E"/>
                    </g>
                </g>
                <g stroke="#282929">
                    <path fill="#FFF" d="M29 37.5c1.333 0 2.333-.167 3-.5 1-.5 2-1 3.5-.5s3.5 3 3.5 3.5-2.5 2-4 2-3-1-4-1h-2M18 67l-2 25.5L.5 110c7 6.667 10.833 10.167 11.5 10.5 1 .5 3.149-.06 3.5-.5s0-1.5-1.5-2-3-3-3.5-5c-.333-1.333-.667-2.5-1-3.5l10-8.5L21 83.5 18 67z" transform="translate(241 179)"/>
                    <path fill="#FFF" d="M27.5 7.5l-3 10.5H20v4c6 7.333 9 11.333 9 12v53l-4.5 28.5c6.333 2 9.5 3.333 9.5 4 0 1 0 1-1.5 1s-14 .5-14.5 0S20 90 20 88c0-1.333-2.167-9.333-6.5-24l-1.5.5L10 21V9.5c0-2 1.5-8 8-8.5s10.5 3 9.5 6.5z" transform="translate(241 179)"/>
                    <path fill="#282929" d="M27.5 7.5c-5 0-7.833.333-8.5 1-1 1-2 6-3 8s-1.5 5-1.5 7-2 6-3.5 6.5-7-1-7.5-4.5S7 17.5 8 15s1-7 3-10.5S16.5 0 20.5 0s7.5 2.5 8 4.5c.333 1.333 0 2.333-1 3z" transform="translate(241 179)"/>
                    <path d="M20 18L18.5 18M20 22L13.5 22M11 40l5.5 25c-1.333 4-1.333 6.333 0 7 2 1 7 .5 7-1.5 0-1.333-.667-3.167-2-5.5-1.333-6.667-2.333-12-3-16-.667-4-1-8.167-1-12.5M16.5 64.5L21.5 64.5M12 64.5L16 63M21 61L29 58" transform="translate(241 179)"/>
                    <path fill="#282929" d="M24.533 115.5c6.334 2 9.5 3.333 9.5 4 0 1 0 1-1.5 1s-14 .5-14.5 0c-.167-.167-.178-1.834-.033-5h6.533zM0 110c7 6.667 10.833 10.167 11.5 10.5 1 .5 3.149-.06 3.5-.5s0-1.5-1.5-2-3-3-3.5-5c-.333-1.333-.667-2.5-1-3.5l-5.5-3L0 110z" transform="translate(241 179)"/>
                    <path d="M36 40L44.5 33.5M25 11.5L23.5 11" transform="translate(241 179)"/>
                </g>
                <path fill="#282929" fill-rule="nonzero" d="M155.972 94.5c-.249 2.25-2.156 4-4.472 4-2.485 0-4.5-2.015-4.5-4.5s2.015-4.5 4.5-4.5c2.316 0 4.224 1.75 4.473 4H276c2.414 0 4.384 1.901 4.495 4.288l.005.212v102.528c2.25.249 4 2.156 4 4.472 0 2.485-2.015 4.5-4.5 4.5s-4.5-2.015-4.5-4.5c0-2.316 1.75-4.224 4-4.473V98c0-1.869-1.464-3.395-3.308-3.495L276 94.5z"/>
                <g>
                    <path fill="#F2534E" d="M16 8c0 4.411-3.589 8-8 8s-8-3.589-8-8 3.589-8 8-8 8 3.589 8 8z" transform="translate(168 86)"/>
                    <path fill="#282929" d="M9.279 8.112c-.098.03-.18.114-.218.217-.038.109-.027.23.027.326l1.525 2.669-1.05.676-1.597-2.79c-.049-.084-.125-.144-.218-.162-.021-.006-.038-.006-.06-.006-.07 0-.136.024-.196.072L6 10.352V4l5 3.58-1.721.532z" transform="translate(168 86)"/>
                </g>
                <g>
                    <path fill="#F2534E" d="M16 8c0 4.411-3.589 8-8 8s-8-3.589-8-8 3.589-8 8-8 8 3.589 8 8z" transform="translate(320 197)"/>
                    <path fill="#282929" d="M9.279 8.112c-.098.03-.18.114-.218.217-.038.109-.027.23.027.326l1.525 2.669-1.05.676-1.597-2.79c-.049-.084-.125-.144-.218-.162-.021-.006-.038-.006-.06-.006-.07 0-.136.024-.196.072L6 10.352V4l5 3.58-1.721.532z" transform="translate(320 197)"/>
                </g>
                <path fill="#282929" fill-rule="nonzero" d="M513.472 29.5c-.249 2.25-2.156 4-4.472 4-2.485 0-4.5-2.015-4.5-4.5s2.015-4.5 4.5-4.5c2.316 0 4.224 1.75 4.473 4H532c2.414 0 4.384 1.901 4.495 4.288l.005.212v25.528c2.25.249 4 2.156 4 4.472 0 2.485-2.015 4.5-4.5 4.5s-4.5-2.015-4.5-4.5c0-2.316 1.75-4.224 4-4.473V33c0-1.869-1.464-3.395-3.308-3.495L532 29.5z"/>
                <path stroke="#2E2E2E" stroke-linecap="round" stroke-linejoin="round" d="M335 59L330 54.125 335 49.25 330 44.375 335 39.5 330 34.625 335 29.75 330 24.875 335 20" transform="rotate(90 332.5 39.5)"/>
                <path stroke="#2E2E2E" stroke-linecap="round" stroke-linejoin="round" d="M133 206.125L128 201.25 133 196.375 128 191.5 133 186.625 128 181.75 133 176.875 128 172" transform="rotate(-180 130.5 189.063)"/>
                <g transform="translate(118 26)">
                    <path stroke="#2E2E2E" stroke-dasharray="1 3" stroke-linecap="round" d="M12.5 25C19.404 25 25 19.404 25 12.5S19.404 0 12.5 0 0 5.596 0 12.5 5.596 25 12.5 25z"/>
                    <circle cx="12.5" cy="12.5" r="4.5" fill="#F2534E"/>
                </g>
            </g>
        </g>
    </g>
</svg>
